<svg width="234" height="239" viewBox="0 0 234 239" fill="none" xmlns="http://www.w3.org/2000/svg">
<g style="mix-blend-mode:multiply">
<path fill-rule="evenodd" clip-rule="evenodd" d="M69.3503 84.1172C72.9123 84.1172 76.4435 83.4798 79.944 82.205L80.5888 95.4164H105.461L89.0638 76.7292C93.4241 72.9628 96.8018 67.9796 99.1969 61.7795C101.592 55.5214 102.79 48.4811 102.79 40.6586C102.79 32.6622 101.469 25.6799 98.8284 19.7116C96.2491 13.6853 92.4415 9.02077 87.4056 5.71792C82.4312 2.35713 76.4128 0.676727 69.3503 0.676727C62.2879 0.676727 56.2388 2.35713 51.2029 5.71792C46.2285 9.02077 42.4209 13.6853 39.7802 19.7116C37.2009 25.6799 35.9112 32.6622 35.9112 40.6586C35.9112 49.1185 37.3237 56.6514 40.1487 63.2571C42.9736 69.8048 46.904 74.9329 51.9399 78.6414C57.0371 82.2919 62.8406 84.1172 69.3503 84.1172ZM90.1692 59.3458C91.8274 65.3141 91.1518 69.0805 88.1426 70.645C85.1334 72.3254 81.2644 70.9927 76.5356 66.6468C71.8683 62.301 66.6789 55.3186 60.9675 45.6998C55.0105 36.1389 51.2029 28.3743 49.5448 22.406C47.9481 16.3798 48.6543 12.5844 51.6635 11.0199C54.6727 9.33947 58.511 10.6722 63.1784 15.0181C67.9071 19.3639 73.1272 26.3463 78.8386 35.9651C84.7956 45.526 88.5725 53.3195 90.1692 59.3458Z" fill="url(#paint0_linear_263_362)"/>
<path d="M5.55514 95.4164H34.2041L17.4385 38.0511L5.55514 95.4164Z" fill="url(#paint1_linear_263_362)"/>
<path d="M21.8602 14.7573C19.3423 13.4825 16.7015 12.8451 13.938 12.8451C10.6831 12.8451 8.04235 13.7143 6.01574 15.4526C3.98912 17.133 2.97581 19.277 2.97581 21.8845C2.97581 24.2602 3.74347 26.4911 5.27879 28.5771C6.8141 30.6631 8.84072 32.3435 11.3586 33.6183C13.8765 34.8931 16.5173 35.5305 19.2809 35.5305C22.5357 35.5305 25.1765 34.6903 27.2031 33.0099C29.2297 31.2716 30.243 29.0986 30.243 26.4911C30.243 24.1733 29.4753 21.9714 27.94 19.8854C26.4047 17.7415 24.3781 16.0321 21.8602 14.7573Z" fill="url(#paint2_linear_263_362)"/>
<path d="M130.507 84.1172C123.936 84.1172 119.054 81.9732 115.86 77.6853C112.728 73.3395 111.162 66.7048 111.162 57.7813L111.346 32.4015C111.346 27.4762 110.824 23.5359 109.78 20.5807C108.798 17.6256 107.17 15.3367 104.898 13.7143H132.994L133.547 54.9999V55.7822C133.609 60.4757 133.762 64.1262 134.008 66.7337C134.253 69.2833 134.806 71.3983 135.666 73.0787C136.526 74.7012 137.877 75.5124 139.719 75.5124C143.035 75.5124 145.093 73.3974 145.891 69.1674C146.751 64.8795 147.089 60.0122 146.904 54.5653L146.26 32.4015C146.198 27.5341 145.584 23.6229 144.417 20.6677C143.312 17.7125 141.592 15.3947 139.258 13.7143H167.907L169.105 57.0859C169.289 63.9234 169.996 69.4282 171.224 73.6002C172.513 77.7143 174.448 80.9302 177.027 83.248H147.826L147.549 73.4264C146.26 76.8451 144.171 79.4816 141.285 81.3358C138.399 83.1901 134.806 84.1172 130.507 84.1172Z" fill="url(#paint3_linear_263_362)"/>
<path fill-rule="evenodd" clip-rule="evenodd" d="M192.575 79.5106C197.243 82.5816 202.647 84.1172 208.788 84.1172C215.789 84.1172 221.439 82.1181 225.738 78.1199C230.098 74.1217 232.739 68.588 233.66 61.5187C234.581 54.3915 233.63 46.3951 230.805 37.5296C230.682 45.1783 229.238 51.0887 226.475 55.2607C223.711 59.4327 219.873 61.5187 214.96 61.5187C211.46 61.5187 208.051 60.4467 204.735 58.3028C201.419 56.1588 198.563 53.2616 196.168 49.6111C193.834 45.9606 192.207 41.9624 191.286 37.6165L232.647 35.9651C231.357 32.0828 229.453 28.4033 226.936 24.9266C224.418 21.4499 221.224 18.5817 217.355 16.3218C213.548 14.004 209.187 12.8451 204.274 12.8451C198.993 12.8451 194.356 14.2358 190.364 17.0171C186.434 19.7406 183.363 23.6518 181.152 28.751C179.003 33.7922 177.928 39.7605 177.928 46.6559C177.928 54.0728 179.218 60.6206 181.797 66.2992C184.377 71.9777 187.969 76.3816 192.575 79.5106ZM203.445 22.9275C205.226 25.535 206.301 28.9248 206.669 33.0968L190.456 32.8361C189.781 28.3164 190.057 24.8976 191.286 22.5798C192.575 20.2041 194.51 19.0162 197.089 19.0162C199.607 19.0162 201.726 20.32 203.445 22.9275Z" fill="url(#paint4_linear_263_362)"/>
<path d="M2.72559 195.412C5.92707 193.126 8.17676 189.942 9.47466 185.86C10.7726 181.696 11.335 176.104 11.1619 169.083L9.99382 123.772C9.82077 116.914 8.91224 111.404 7.26824 107.24C5.71076 103.076 3.28801 99.8107 0 97.4432H40.2349L40.6242 111.281C42.4413 106.546 45.3399 102.872 49.3202 100.26C53.3869 97.5656 58.3189 96.2186 64.1162 96.2186C70.6057 96.2186 75.7541 97.8105 79.5612 100.995C83.3684 104.179 86.094 107.812 87.738 111.894C89.2955 107.322 92.2374 103.566 96.5637 100.627C100.89 97.6881 106.168 96.2186 112.398 96.2186C118.195 96.2186 122.695 97.6064 125.896 100.382C129.098 103.076 131.261 106.056 132.386 109.322C133.511 112.587 134.333 116.057 134.852 119.731V119.854L141.082 166.634C142.033 173.818 143.461 179.696 145.365 184.268C147.268 188.84 149.561 192.514 152.244 195.289L152.373 195.412H110.321L107.855 122.548C107.769 118.466 107.25 115.078 106.298 112.383C105.346 109.689 103.313 108.342 100.198 108.342C92.497 108.342 88.9926 118.18 89.6848 137.855L90.7232 166.511C91.0693 174.022 92.0643 180.063 93.7083 184.635C95.3523 189.207 97.8183 192.799 101.106 195.412H62.0396L59.5736 122.548C59.487 118.466 58.9679 115.078 58.0161 112.383C57.0643 109.689 55.0309 108.342 51.916 108.342C47.2435 108.342 44.3016 111.2 43.0903 116.914C41.8789 122.629 41.3597 129.242 41.5328 136.753V137.855L42.4413 169.083C42.5278 175.941 43.3498 181.451 44.9073 185.615C46.5513 189.779 49.0173 193.044 52.3053 195.412H2.72559Z" fill="url(#paint5_linear_263_362)"/>
<path fill-rule="evenodd" clip-rule="evenodd" d="M195.502 196.637C186.849 196.637 179.235 194.473 172.659 190.146C166.17 185.738 161.108 179.533 157.474 171.532C153.84 163.531 152.023 154.306 152.023 143.856C152.023 134.141 153.537 125.732 156.565 118.629C159.68 111.445 164.006 105.934 169.544 102.097C175.168 98.1779 181.701 96.2186 189.142 96.2186C196.065 96.2186 202.208 97.8514 207.573 101.117C213.024 104.301 217.523 108.342 221.071 113.241C224.618 118.139 227.301 123.323 229.118 128.793L170.842 131.12C172.14 137.243 174.433 142.876 177.721 148.02C181.095 153.163 185.119 157.245 189.791 160.266C194.464 163.286 199.266 164.797 204.198 164.797C211.12 164.797 216.528 161.858 220.422 155.98C224.315 150.101 226.349 141.774 226.522 130.997C230.502 143.488 231.843 154.755 230.545 164.797C229.248 174.757 225.527 182.553 219.383 188.187C213.327 193.82 205.366 196.637 195.502 196.637ZM192.517 124.752C191.998 118.874 190.484 114.098 187.974 110.424C185.552 106.75 182.566 104.913 179.019 104.913C175.385 104.913 172.659 106.587 170.842 109.934C169.112 113.2 168.722 118.017 169.674 124.385L192.517 124.752Z" fill="url(#paint6_linear_263_362)"/>
<path d="M8.24253 236.028C10.866 237.801 13.8971 238.687 17.3359 238.687C20.5265 238.687 23.2032 237.935 25.3657 236.43C27.5283 234.924 28.9818 232.85 29.7263 230.208C30.4708 227.565 30.3998 224.622 29.5136 221.377C29.1945 223.016 28.4855 224.337 27.3865 225.341C26.2874 226.311 24.9048 226.796 23.2386 226.796C20.6861 226.796 18.0981 225.642 15.4747 223.334C12.8512 220.992 10.671 218.216 8.93383 215.005C7.1967 211.76 6.32813 208.95 6.32813 206.576C6.32813 205.171 6.66492 204.084 7.33851 203.314C8.01209 202.545 8.91611 202.16 10.0506 202.16C12.2486 202.16 14.9252 203.632 18.0804 206.576C21.2356 209.486 24.9403 213.884 29.1945 219.771V201.056C27.7764 199.952 25.9861 199.099 23.8236 198.497C21.6965 197.862 19.4453 197.544 17.07 197.544C11.4686 197.544 7.21443 199.317 4.30738 202.863C1.43579 206.375 0 211.125 0 217.112C0 221.394 0.726761 225.174 2.18028 228.452C3.6338 231.696 5.65455 234.222 8.24253 236.028Z" fill="url(#paint7_linear_263_362)"/>
<path fill-rule="evenodd" clip-rule="evenodd" d="M36.1416 236.48C37.4534 237.951 39.2082 238.687 41.4062 238.687C44.1006 238.687 46.5645 237.483 48.7979 235.075C51.0314 232.633 52.8749 229.171 54.3284 224.689H54.4347C53.123 234.021 55.6933 238.687 62.1455 238.687C64.9107 238.687 67.1265 237.851 68.7927 236.179C70.4944 234.506 71.6111 232.081 72.1429 228.903C70.8666 230.509 69.6612 231.312 68.5268 231.312C67.3214 231.312 66.5947 230.676 66.3465 229.405C66.1338 228.134 66.1515 226.612 66.3997 224.839L67.676 214.453C67.8178 213.383 67.8887 212.229 67.8887 210.991C67.8887 206.642 66.6833 203.331 64.2726 201.056C61.6846 198.715 57.8204 197.544 52.6799 197.544C49.3474 197.544 46.0859 197.979 42.8952 198.849C39.7045 199.685 37.0811 200.822 35.0249 202.26V220.624L37.737 217.012C41.0694 212.63 43.6929 209.285 45.6073 206.977C47.5571 204.635 49.2056 202.896 50.5528 201.759C51.8999 200.588 53.0698 200.003 54.0625 200.003C54.7006 200.003 55.2147 200.254 55.6046 200.755C56.0301 201.224 56.2428 201.943 56.2428 202.913C56.2428 204.753 55.4983 206.525 54.0093 208.231C52.5203 209.904 50.0387 211.928 46.5645 214.302L45.6604 214.905C43.3561 216.443 41.4417 217.865 39.9173 219.169C38.3928 220.44 37.0634 222.029 35.9289 223.936C34.7945 225.809 34.2272 227.95 34.2272 230.358C34.2272 232.934 34.8654 234.974 36.1416 236.48ZM52.6799 223.886C51.4745 226.428 49.9678 227.699 48.1598 227.699C47.3089 227.699 46.6531 227.415 46.1922 226.846C45.7313 226.277 45.5009 225.475 45.5009 224.438C45.5009 222.966 45.8909 221.628 46.6708 220.424C47.4862 219.186 48.727 217.664 50.3932 215.858C51.6695 214.453 52.6976 213.249 53.4775 212.245C54.2929 211.242 55.002 210.138 55.6046 208.934H55.6578L55.2324 212.948C54.7361 217.664 53.8852 221.31 52.6799 223.886Z" fill="url(#paint8_linear_263_362)"/>
<path d="M90.249 238.687C86.2784 238.687 82.9814 237.801 80.358 236.028C77.77 234.222 75.9797 231.646 74.987 228.301C73.9944 224.923 73.8703 220.942 74.6148 216.36C75.3593 218.367 76.5292 220.106 78.1245 221.578C79.7198 223.05 81.7051 224.187 84.0804 224.99C86.4557 225.759 89.1323 226.144 92.1102 226.144C95.0527 226.144 97.4103 225.776 99.1828 225.04C100.955 224.271 101.842 223.284 101.842 222.08C101.842 221.377 101.487 220.909 100.778 220.675C100.069 220.44 98.8106 220.29 97.0026 220.223L95.3009 220.173L91.6848 220.073C87.8915 219.872 84.7185 219.437 82.166 218.768C79.6135 218.066 77.575 216.895 76.0506 215.256C74.5616 213.583 73.8171 211.258 73.8171 208.281C73.8171 204.635 75.0048 201.943 77.38 200.203C79.7553 198.431 83.3891 197.544 88.2814 197.544C91.0467 197.544 93.6524 197.812 96.0985 198.347C98.5802 198.849 100.69 199.585 102.427 200.555V214.604C98.5979 209.887 95.1945 206.308 92.2166 203.866C89.2386 201.424 86.7038 200.203 84.6122 200.203C83.7613 200.203 83.07 200.437 82.5383 200.906C82.0419 201.341 81.7938 201.959 81.7938 202.762C81.7938 204.1 82.4674 205.254 83.8145 206.224C85.1971 207.161 87.3242 208.265 90.1958 209.536C93.2801 210.941 95.8149 212.245 97.8002 213.449C99.7855 214.654 101.487 216.276 102.905 218.316C104.359 220.357 105.086 222.849 105.086 225.792C105.086 228.435 104.483 230.726 103.278 232.666C102.072 234.606 100.353 236.095 98.1193 237.132C95.8858 238.169 93.2624 238.687 90.249 238.687Z" fill="url(#paint9_linear_263_362)"/>
<path fill-rule="evenodd" clip-rule="evenodd" d="M115.92 235.978C118.401 237.784 121.255 238.687 124.481 238.687C127.707 238.687 130.561 237.784 133.043 235.978C135.524 234.172 137.457 231.646 138.839 228.402C140.257 225.157 140.966 221.444 140.966 217.263C140.966 213.316 140.328 209.87 139.052 206.927C137.776 203.95 135.897 201.642 133.415 200.003C130.933 198.364 127.956 197.544 124.481 197.544C121.007 197.544 118.029 198.364 115.547 200.003C113.066 201.642 111.187 203.95 109.911 206.927C108.634 209.87 107.996 213.316 107.996 217.263C107.996 221.444 108.687 225.157 110.07 228.402C111.488 231.646 113.438 234.172 115.92 235.978ZM134.532 226.395C135.312 229.305 134.993 231.128 133.575 231.864C132.192 232.633 130.366 231.964 128.097 229.857C125.864 227.749 123.347 224.354 120.546 219.671C117.639 215.022 115.778 211.258 114.962 208.382C114.147 205.472 114.466 203.649 115.92 202.913C117.338 202.11 119.163 202.762 121.397 204.87C123.666 206.977 126.201 210.389 129.001 215.105C131.908 219.721 133.752 223.484 134.532 226.395Z" fill="url(#paint10_linear_263_362)"/>
<path fill-rule="evenodd" clip-rule="evenodd" d="M160.438 238.687C157.212 238.687 154.358 237.784 151.877 235.978C149.395 234.172 147.445 231.646 146.027 228.402C144.645 225.157 143.953 221.444 143.953 217.263C143.953 213.316 144.592 209.87 145.868 206.927C147.144 203.95 149.023 201.642 151.505 200.003C153.986 198.364 156.964 197.544 160.438 197.544C163.913 197.544 166.891 198.364 169.372 200.003C171.854 201.642 173.733 203.95 175.009 206.927C176.285 209.87 176.923 213.316 176.923 217.263C176.923 221.444 176.214 225.157 174.796 228.402C173.414 231.646 171.482 234.172 169 235.978C166.518 237.784 163.665 238.687 160.438 238.687ZM169.532 231.864C170.95 231.128 171.269 229.305 170.489 226.395C169.709 223.484 167.866 219.721 164.959 215.105C162.158 210.389 159.623 206.977 157.354 204.87C155.121 202.762 153.295 202.11 151.877 202.913C150.423 203.649 150.104 205.472 150.92 208.382C151.735 211.258 153.596 215.022 156.503 219.671C159.304 224.354 161.821 227.749 164.055 229.857C166.323 231.964 168.149 232.633 169.532 231.864Z" fill="url(#paint11_linear_263_362)"/>
<path fill-rule="evenodd" clip-rule="evenodd" d="M187.834 235.978C190.316 237.784 193.169 238.687 196.396 238.687C199.622 238.687 202.476 237.784 204.957 235.978C207.439 234.172 209.371 231.646 210.754 228.402C212.172 225.157 212.881 221.444 212.881 217.263C212.881 213.316 212.243 209.87 210.966 206.927C209.69 203.95 207.811 201.642 205.329 200.003C202.848 198.364 199.87 197.544 196.396 197.544C192.921 197.544 189.943 198.364 187.462 200.003C184.98 201.642 183.101 203.95 181.825 206.927C180.549 209.87 179.911 213.316 179.911 217.263C179.911 221.444 180.602 225.157 181.984 228.402C183.403 231.646 185.352 234.172 187.834 235.978ZM206.446 226.395C207.226 229.305 206.907 231.128 205.489 231.864C204.106 232.633 202.281 231.964 200.012 229.857C197.778 227.749 195.261 224.354 192.46 219.671C189.553 215.022 187.692 211.258 186.877 208.382C186.061 205.472 186.38 203.649 187.834 202.913C189.252 202.11 191.078 202.762 193.311 204.87C195.58 206.977 198.115 210.389 200.916 215.105C203.823 219.721 205.666 223.484 206.446 226.395Z" fill="url(#paint12_linear_263_362)"/>
<path d="M212.997 197.544H229.535L222.675 224.137L212.997 197.544Z" fill="url(#paint13_linear_263_362)"/>
<path d="M224.696 238.687C223.101 238.687 221.576 238.319 220.123 237.584C218.669 236.848 217.499 235.878 216.613 234.673C215.727 233.436 215.284 232.148 215.284 230.81C215.284 229.305 215.869 228.067 217.038 227.097C218.208 226.093 219.733 225.592 221.612 225.592C223.207 225.592 224.732 225.96 226.185 226.696C227.639 227.431 228.808 228.402 229.695 229.606C230.581 230.81 231.024 232.098 231.024 233.469C231.024 234.974 230.439 236.229 229.269 237.232C228.099 238.202 226.575 238.687 224.696 238.687Z" fill="url(#paint14_linear_263_362)"/>
</g>
<defs>
<linearGradient id="paint0_linear_263_362" x1="114.81" y1="212.479" x2="114.81" y2="0.67672" gradientUnits="userSpaceOnUse">
<stop stop-color="#FF4371"/>
<stop offset="1" stop-color="#3066BE"/>
</linearGradient>
<linearGradient id="paint1_linear_263_362" x1="114.81" y1="212.479" x2="114.81" y2="0.67672" gradientUnits="userSpaceOnUse">
<stop stop-color="#FF4371"/>
<stop offset="1" stop-color="#3066BE"/>
</linearGradient>
<linearGradient id="paint2_linear_263_362" x1="114.81" y1="212.479" x2="114.81" y2="0.67672" gradientUnits="userSpaceOnUse">
<stop stop-color="#FF4371"/>
<stop offset="1" stop-color="#3066BE"/>
</linearGradient>
<linearGradient id="paint3_linear_263_362" x1="114.81" y1="212.479" x2="114.81" y2="0.67672" gradientUnits="userSpaceOnUse">
<stop stop-color="#FF4371"/>
<stop offset="1" stop-color="#3066BE"/>
</linearGradient>
<linearGradient id="paint4_linear_263_362" x1="114.81" y1="212.479" x2="114.81" y2="0.67672" gradientUnits="userSpaceOnUse">
<stop stop-color="#FF4371"/>
<stop offset="1" stop-color="#3066BE"/>
</linearGradient>
<linearGradient id="paint5_linear_263_362" x1="114.81" y1="212.479" x2="114.81" y2="0.67672" gradientUnits="userSpaceOnUse">
<stop stop-color="#FF4371"/>
<stop offset="1" stop-color="#3066BE"/>
</linearGradient>
<linearGradient id="paint6_linear_263_362" x1="114.81" y1="212.479" x2="114.81" y2="0.67672" gradientUnits="userSpaceOnUse">
<stop stop-color="#FF4371"/>
<stop offset="1" stop-color="#3066BE"/>
</linearGradient>
<linearGradient id="paint7_linear_263_362" x1="114.81" y1="212.479" x2="114.81" y2="0.67672" gradientUnits="userSpaceOnUse">
<stop stop-color="#FF4371"/>
<stop offset="1" stop-color="#3066BE"/>
</linearGradient>
<linearGradient id="paint8_linear_263_362" x1="114.81" y1="212.479" x2="114.81" y2="0.67672" gradientUnits="userSpaceOnUse">
<stop stop-color="#FF4371"/>
<stop offset="1" stop-color="#3066BE"/>
</linearGradient>
<linearGradient id="paint9_linear_263_362" x1="114.81" y1="212.479" x2="114.81" y2="0.67672" gradientUnits="userSpaceOnUse">
<stop stop-color="#FF4371"/>
<stop offset="1" stop-color="#3066BE"/>
</linearGradient>
<linearGradient id="paint10_linear_263_362" x1="114.81" y1="212.479" x2="114.81" y2="0.67672" gradientUnits="userSpaceOnUse">
<stop stop-color="#FF4371"/>
<stop offset="1" stop-color="#3066BE"/>
</linearGradient>
<linearGradient id="paint11_linear_263_362" x1="114.81" y1="212.479" x2="114.81" y2="0.67672" gradientUnits="userSpaceOnUse">
<stop stop-color="#FF4371"/>
<stop offset="1" stop-color="#3066BE"/>
</linearGradient>
<linearGradient id="paint12_linear_263_362" x1="114.81" y1="212.479" x2="114.81" y2="0.67672" gradientUnits="userSpaceOnUse">
<stop stop-color="#FF4371"/>
<stop offset="1" stop-color="#3066BE"/>
</linearGradient>
<linearGradient id="paint13_linear_263_362" x1="114.81" y1="212.479" x2="114.81" y2="0.67672" gradientUnits="userSpaceOnUse">
<stop stop-color="#FF4371"/>
<stop offset="1" stop-color="#3066BE"/>
</linearGradient>
<linearGradient id="paint14_linear_263_362" x1="114.81" y1="212.479" x2="114.81" y2="0.67672" gradientUnits="userSpaceOnUse">
<stop stop-color="#FF4371"/>
<stop offset="1" stop-color="#3066BE"/>
</linearGradient>
</defs>
</svg>
