<?xml version="1.0" encoding="utf-8"?>
<!-- Generator: Adobe Illustrator 25.4.1, SVG Export Plug-In . SVG Version: 6.00 Build 0)  -->
<svg version="1.1" id="Layer_1" xmlns="http://www.w3.org/2000/svg" xmlns:xlink="http://www.w3.org/1999/xlink" x="0px" y="0px"
	 viewBox="0 0 32 32" style="enable-background:new 0 0 32 32;" xml:space="preserve">
<style type="text/css">
	.st0{clip-path:url(#SVGID_00000019671937967176977920000007193268821488398733_);}
	.st1{fill:#FFFFFF;}
</style>
<g>
	<g>
		<defs>
			<rect id="SVGID_1_" width="32" height="32"/>
		</defs>
		<clipPath id="SVGID_00000000198397712366152340000007725834567359159434_">
			<use xlink:href="#SVGID_1_"  style="overflow:visible;"/>
		</clipPath>
		<g style="clip-path:url(#SVGID_00000000198397712366152340000007725834567359159434_);">
			<path class="st1" d="M5.3,2.8c0,0.7,0.3,1.4,0.8,1.9C6.6,5.2,7.3,5.5,8,5.5h14.9L0.8,27.6C0.3,28.1,0,28.8,0,29.5
				c0,0.7,0.3,1.4,0.8,1.9c0.5,0.5,1.2,0.8,1.9,0.8c0.7,0,1.4-0.3,1.9-0.8L26.7,9.2v14.9c0,0.7,0.3,1.4,0.8,1.9
				c0.5,0.5,1.2,0.8,1.9,0.8c0.7,0,1.4-0.3,1.9-0.8c0.5-0.5,0.8-1.2,0.8-1.9V2.8c0-0.7-0.3-1.4-0.8-1.9c-0.5-0.5-1.2-0.8-1.9-0.8H8
				c-0.7,0-1.4,0.3-1.9,0.8C5.6,1.4,5.3,2.1,5.3,2.8z"/>
		</g>
	</g>
</g>
</svg>
