<?xml version="1.0" encoding="utf-8"?>
<!-- Generator: Adobe Illustrator 25.4.1, SVG Export Plug-In . SVG Version: 6.00 Build 0)  -->
<svg version="1.1" id="Layer_1" xmlns="http://www.w3.org/2000/svg" xmlns:xlink="http://www.w3.org/1999/xlink" x="0px" y="0px"
	 viewBox="0 0 24 24" style="enable-background:new 0 0 24 24;" xml:space="preserve">
<style type="text/css">
	.st0{clip-path:url(#SVGID_00000143616221914645850160000003420215435743720876_);}
	.st1{fill:#28292B;}
</style>
<g>
	<defs>
		<rect id="SVGID_1_" width="24" height="24"/>
	</defs>
	<clipPath id="SVGID_00000156589084572557059030000003796333922789705113_">
		<use xlink:href="#SVGID_1_"  style="overflow:visible;"/>
	</clipPath>
	<g style="clip-path:url(#SVGID_00000156589084572557059030000003796333922789705113_);">
		<path class="st1" d="M6,9c0.2,0,0.5,0.1,0.6,0.2l5.4,4.5l5.4-4.3c0.1-0.1,0.2-0.1,0.3-0.2c0.1,0,0.3,0,0.4,0
			c0.1,0,0.3,0.1,0.4,0.1c0.1,0.1,0.2,0.1,0.3,0.3c0.1,0.1,0.1,0.2,0.2,0.3c0,0.1,0,0.3,0,0.4c0,0.1-0.1,0.3-0.1,0.4
			c-0.1,0.1-0.1,0.2-0.3,0.3l-6,4.8C12.5,15.9,12.2,16,12,16s-0.5-0.1-0.6-0.2l-6-5c-0.1-0.1-0.2-0.2-0.2-0.3
			C5.1,10.4,5,10.2,5,10.1C5,10,5,9.8,5,9.7c0-0.1,0.1-0.2,0.2-0.3c0.1-0.1,0.2-0.2,0.3-0.3C5.7,9,5.9,9,6,9z"/>
	</g>
</g>
</svg>
