<svg width="32" height="33" viewBox="0 0 32 33" fill="none" xmlns="http://www.w3.org/2000/svg">
<g clip-path="url(#clip0_263_408)">
<path d="M10.6666 10.0099C10.6666 10.3635 10.8071 10.7027 11.0572 10.9527C11.3072 11.2028 11.6463 11.3432 12 11.3432L19.4533 11.3432L8.38663 22.3966C8.13556 22.6477 7.99451 22.9882 7.99451 23.3432C7.99451 23.6983 8.13556 24.0388 8.38663 24.2899C8.6377 24.541 8.97823 24.682 9.3333 24.682C9.68836 24.682 10.0289 24.541 10.28 24.2899L21.3333 13.2232L21.3333 20.6766C21.3333 21.0302 21.4738 21.3693 21.7238 21.6194C21.9739 21.8694 22.313 22.0099 22.6666 22.0099C23.0203 22.0099 23.3594 21.8694 23.6094 21.6194C23.8595 21.3693 24 21.0302 24 20.6766L24 10.0099C24 9.65629 23.8595 9.31715 23.6094 9.0671C23.3594 8.81706 23.0203 8.67658 22.6666 8.67658L12 8.67658C11.6463 8.67658 11.3072 8.81706 11.0572 9.06711C10.8071 9.31715 10.6666 9.65629 10.6666 10.0099Z" fill="white"/>
</g>
<defs>
<clipPath id="clip0_263_408">
<rect width="32" height="32" fill="white" transform="translate(0 0.682037)"/>
</clipPath>
</defs>
</svg>
