<?xml version="1.0" encoding="utf-8"?>
<!-- Generator: Adobe Illustrator 25.4.1, SVG Export Plug-In . SVG Version: 6.00 Build 0)  -->
<svg version="1.1" id="Layer_1" xmlns="http://www.w3.org/2000/svg" xmlns:xlink="http://www.w3.org/1999/xlink" x="0px" y="0px"
	 viewBox="0 0 24 24" style="enable-background:new 0 0 24 24;" xml:space="preserve">
<style type="text/css">
	.st0{clip-path:url(#SVGID_00000073693243082103544330000002698877498618658471_);}
	.st1{fill:#28292B;}
</style>
<g>
	<defs>
		<rect id="SVGID_1_" width="24" height="24"/>
	</defs>
	<clipPath id="SVGID_00000047747611355117623250000010349706592735623357_">
		<use xlink:href="#SVGID_1_"  style="overflow:visible;"/>
	</clipPath>
	<g style="clip-path:url(#SVGID_00000047747611355117623250000010349706592735623357_);">
		<path class="st1" d="M15,6c0,0.2-0.1,0.5-0.2,0.6L10.3,12l4.3,5.4c0.1,0.1,0.1,0.2,0.2,0.3c0,0.1,0,0.3,0,0.4
			c0,0.1-0.1,0.3-0.1,0.4c-0.1,0.1-0.1,0.2-0.3,0.3c-0.1,0.1-0.2,0.1-0.3,0.2c-0.1,0-0.3,0-0.4,0c-0.1,0-0.3-0.1-0.4-0.1
			c-0.1-0.1-0.2-0.1-0.3-0.3l-4.8-6C8.1,12.5,8,12.2,8,12s0.1-0.5,0.2-0.6l5-6c0.1-0.1,0.2-0.2,0.3-0.2C13.6,5.1,13.8,5,13.9,5
			c0.1,0,0.3,0,0.4,0c0.1,0,0.2,0.1,0.3,0.2c0.1,0.1,0.2,0.2,0.3,0.3C15,5.7,15,5.9,15,6z"/>
	</g>
</g>
</svg>
