<svg width="24" height="25" viewBox="0 0 24 25" fill="none" xmlns="http://www.w3.org/2000/svg">
<g clip-path="url(#clip0_304_71)">
<path d="M20.05 11.682H3.95C3.42533 11.682 3 12.1074 3 12.632V12.732C3 13.2567 3.42533 13.682 3.95 13.682H20.05C20.5747 13.682 21 13.2567 21 12.732V12.632C21 12.1074 20.5747 11.682 20.05 11.682Z" fill="#28292B"/>
<path d="M20.05 16.682H3.95C3.42533 16.682 3 17.1074 3 17.632V17.732C3 18.2567 3.42533 18.682 3.95 18.682H20.05C20.5747 18.682 21 18.2567 21 17.732V17.632C21 17.1074 20.5747 16.682 20.05 16.682Z" fill="#28292B"/>
<path d="M20.05 6.68204H3.95C3.42533 6.68204 3 7.10737 3 7.63204V7.73204C3 8.25671 3.42533 8.68204 3.95 8.68204H20.05C20.5747 8.68204 21 8.25671 21 7.73204V7.63204C21 7.10737 20.5747 6.68204 20.05 6.68204Z" fill="#28292B"/>
</g>
<defs>
<clipPath id="clip0_304_71">
<rect width="24" height="24" fill="white" transform="translate(0 0.682037)"/>
</clipPath>
</defs>
</svg>
