<svg width="24" height="25" viewBox="0 0 24 25" fill="none" xmlns="http://www.w3.org/2000/svg">
<g clip-path="url(#clip0_215_1638)">
<path d="M12 2.90991C9.89206 2.90981 7.86926 3.74167 6.37124 5.2247C4.87323 6.70774 4.02108 8.72207 4 10.8299C4 16.3099 11.05 22.4099 11.35 22.6699C11.5311 22.8248 11.7616 22.91 12 22.91C12.2384 22.91 12.4689 22.8248 12.65 22.6699C13 22.4099 20 16.3099 20 10.8299C19.9789 8.72207 19.1268 6.70774 17.6288 5.2247C16.1307 3.74167 14.1079 2.90981 12 2.90991ZM12 20.5599C10.33 18.9699 6 14.5599 6 10.8299C6 9.23861 6.63214 7.71249 7.75736 6.58727C8.88258 5.46205 10.4087 4.82991 12 4.82991C13.5913 4.82991 15.1174 5.46205 16.2426 6.58727C17.3679 7.71249 18 9.23861 18 10.8299C18 14.5299 13.67 18.9699 12 20.5599Z" fill="#3066BE"/>
<path d="M12 6.90991C11.3078 6.90991 10.6311 7.11518 10.0555 7.49977C9.47993 7.88435 9.03133 8.43098 8.76642 9.07052C8.50152 9.71006 8.4322 10.4138 8.56725 11.0927C8.7023 11.7717 9.03564 12.3953 9.52513 12.8848C10.0146 13.3743 10.6383 13.7076 11.3172 13.8427C11.9961 13.9777 12.6999 13.9084 13.3394 13.6435C13.9789 13.3786 14.5256 12.93 14.9101 12.3544C15.2947 11.7788 15.5 11.1021 15.5 10.4099C15.5 9.48165 15.1313 8.59142 14.4749 7.93504C13.8185 7.27866 12.9283 6.90991 12 6.90991ZM12 11.9099C11.7033 11.9099 11.4133 11.8219 11.1666 11.6571C10.92 11.4923 10.7277 11.258 10.6142 10.9839C10.5007 10.7098 10.4709 10.4082 10.5288 10.1173C10.5867 9.8263 10.7296 9.55903 10.9393 9.34925C11.1491 9.13947 11.4164 8.99661 11.7074 8.93873C11.9983 8.88086 12.2999 8.91056 12.574 9.02409C12.8481 9.13762 13.0824 9.32988 13.2472 9.57656C13.412 9.82323 13.5 10.1132 13.5 10.4099C13.5 10.8077 13.342 11.1893 13.0607 11.4706C12.7794 11.7519 12.3978 11.9099 12 11.9099Z" fill="#3066BE"/>
</g>
<defs>
<clipPath id="clip0_215_1638">
<rect width="24" height="24" fill="white" transform="translate(0 0.909912)"/>
</clipPath>
</defs>
</svg>
