<svg width="24" height="25" viewBox="0 0 24 25" fill="none" xmlns="http://www.w3.org/2000/svg">
<g clip-path="url(#clip0_215_1634)">
<path d="M12 2.90991C10.0222 2.90991 8.08879 3.4964 6.4443 4.59522C4.79981 5.69403 3.51809 7.25582 2.76121 9.08308C2.00433 10.9103 1.8063 12.921 2.19215 14.8608C2.578 16.8006 3.53041 18.5825 4.92894 19.981C6.32746 21.3795 8.10929 22.3319 10.0491 22.7178C11.9889 23.1036 13.9996 22.9056 15.8268 22.1487C17.6541 21.3918 19.2159 20.1101 20.3147 18.4656C21.4135 16.8211 22 14.8877 22 12.9099C22 11.5967 21.7413 10.2963 21.2388 9.08308C20.7363 7.86982 19.9997 6.76743 19.0711 5.83884C18.1425 4.91026 17.0401 4.17366 15.8268 3.67112C14.6136 3.16857 13.3132 2.90991 12 2.90991ZM12 20.9099C10.4178 20.9099 8.87104 20.4407 7.55544 19.5617C6.23985 18.6826 5.21447 17.4332 4.60897 15.9714C4.00347 14.5096 3.84504 12.901 4.15372 11.3492C4.4624 9.79734 5.22433 8.37188 6.34315 7.25306C7.46197 6.13424 8.88743 5.37231 10.4393 5.06363C11.9911 4.75495 13.5997 4.91337 15.0615 5.51888C16.5233 6.12438 17.7727 7.14976 18.6518 8.46535C19.5308 9.78094 20 11.3277 20 12.9099C20 15.0316 19.1572 17.0665 17.6569 18.5668C16.1566 20.0671 14.1217 20.9099 12 20.9099Z" fill="#3066BE"/>
<path d="M16 11.9099H13V8.90991C13 8.6447 12.8946 8.39034 12.7071 8.20281C12.5196 8.01527 12.2652 7.90991 12 7.90991C11.7348 7.90991 11.4804 8.01527 11.2929 8.20281C11.1054 8.39034 11 8.6447 11 8.90991V12.9099C11 13.1751 11.1054 13.4295 11.2929 13.617C11.4804 13.8046 11.7348 13.9099 12 13.9099H16C16.2652 13.9099 16.5196 13.8046 16.7071 13.617C16.8946 13.4295 17 13.1751 17 12.9099C17 12.6447 16.8946 12.3903 16.7071 12.2028C16.5196 12.0153 16.2652 11.9099 16 11.9099Z" fill="#3066BE"/>
</g>
<defs>
<clipPath id="clip0_215_1634">
<rect width="24" height="24" fill="white" transform="translate(0 0.909912)"/>
</clipPath>
</defs>
</svg>
