<?xml version="1.0" encoding="utf-8"?>
<!-- Generator: Adobe Illustrator 25.4.1, SVG Export Plug-In . SVG Version: 6.00 Build 0)  -->
<svg version="1.1" id="Layer_1" xmlns="http://www.w3.org/2000/svg" xmlns:xlink="http://www.w3.org/1999/xlink" x="0px" y="0px"
	 viewBox="0 0 24 19.8" style="enable-background:new 0 0 24 19.8;" xml:space="preserve">
<style type="text/css">
	.st0{clip-path:url(#SVGID_00000150066248106999632600000013762538362631283591_);}
	.st1{fill:#28292B;stroke:#FFFFFF;stroke-width:0.75;stroke-miterlimit:10;}
</style>
<g>
	<defs>
		<rect id="SVGID_1_" y="0.3" width="24" height="19.1"/>
	</defs>
	<clipPath id="SVGID_00000176738694663378821520000015391305032141632440_">
		<use xlink:href="#SVGID_1_"  style="overflow:visible;"/>
	</clipPath>
	<g style="clip-path:url(#SVGID_00000176738694663378821520000015391305032141632440_);">
		<path class="st1" d="M12,11c-0.1,0-0.3,0-0.4-0.1c-0.1,0-0.2-0.1-0.3-0.2l-4-4C7.2,6.6,7.1,6.5,7.1,6.3C7,6.2,7,6.1,7,6
			c0-0.1,0-0.3,0.1-0.4c0.1-0.1,0.1-0.2,0.2-0.3C7.4,5.1,7.5,5.1,7.6,5C7.7,5,7.9,4.9,8,4.9S8.3,5,8.4,5c0.1,0.1,0.2,0.1,0.3,0.2
			L12,8.6l3.3-3.2c0.1-0.1,0.2-0.2,0.3-0.2C15.8,5.1,15.9,5,16,5c0.1,0,0.3,0,0.4,0.1c0.1,0.1,0.2,0.1,0.3,0.2
			c0.1,0.1,0.2,0.2,0.2,0.3C17,5.8,17,6,17,6.1c0,0.1,0,0.3-0.1,0.4c-0.1,0.1-0.1,0.2-0.3,0.3l-4,3.9C12.5,10.8,12.3,10.9,12,11z"/>
	</g>
</g>
</svg>
