<svg width="56" height="24" viewBox="0 0 56 24" fill="none" xmlns="http://www.w3.org/2000/svg">
<g clip-path="url(#clip0_373_461)">
<path d="M0 22.8683C0.994189 20.2473 1.98838 17.7166 2.80181 15.1859C3.61523 12.6553 4.42866 10.0342 5.33247 7.14202C5.87747 5.76512 6.06405 4.27242 5.87476 2.80374C5.82255 2.30465 5.66701 1.8219 5.41804 1.38621C5.16908 0.95052 4.83214 0.571431 4.42866 0.273069H13.3764L18.4377 16.8128C18.8442 18.1942 19.327 19.552 19.8838 20.8799C20.1786 21.6372 20.6422 22.3173 21.2395 22.8683H13.9187L11.9303 15.909H7.04971C7.23047 19.1627 8.31504 21.5126 10.213 22.8683H0ZM11.1168 13.3783L8.58618 4.70173C7.80658 7.57082 7.29226 10.5055 7.04971 13.4687H11.1168V13.3783ZM26.4816 23.0491C25.7644 23.0485 25.0556 22.8944 24.4028 22.5972C23.8065 22.3175 23.3268 21.8378 23.0471 21.2414C22.708 20.669 22.5505 20.0072 22.5952 19.3434C22.5831 18.3048 22.9715 17.3014 23.6798 16.5416C24.4502 15.7105 25.4616 15.1415 26.572 14.9148C25.6247 14.0189 25.072 12.7836 25.0355 11.4803C25.009 10.7918 25.2339 10.1172 25.6682 9.5823C26.1178 9.01526 26.7106 8.57846 27.3854 8.31697C28.2255 8.01254 29.1129 7.85954 30.0064 7.86507C30.8405 7.86689 31.6673 8.02 32.4467 8.31697C33.0632 8.54919 33.5976 8.95785 33.9832 9.49192C34.3334 9.92755 34.5246 10.4695 34.5255 11.0284C34.5356 11.5628 34.4113 12.0911 34.164 12.5649C33.8944 13.138 33.4518 13.6122 32.8986 13.9206C32.2723 14.3218 31.56 14.5695 30.8199 14.6436L32.5371 17.1743L33.3505 14.1013H37.5081L33.2602 18.2589C33.418 18.4884 33.5998 18.7005 33.8024 18.8915C33.913 18.9888 34.042 19.0628 34.1817 19.1094C34.3214 19.156 34.469 19.1741 34.6159 19.1627C34.8272 19.1679 35.0366 19.1212 35.2257 19.0266C35.4148 18.9321 35.5778 18.7926 35.7004 18.6204C36.0353 18.036 36.2504 17.3908 36.3331 16.7224C36.6618 17.8047 36.7844 18.939 36.6946 20.0665C36.6486 20.9104 36.3668 21.7246 35.8812 22.4164C35.6485 22.6886 35.3563 22.9036 35.0271 23.0447C34.698 23.1857 34.3408 23.2491 33.9832 23.2298C33.5463 23.2365 33.1136 23.1438 32.7179 22.9587C32.3285 22.7674 31.9883 22.489 31.7237 22.1452C31.4525 21.7837 31.1814 21.4222 30.8199 20.9703C30.1892 21.6506 29.4576 22.2298 28.6507 22.6875C27.9485 22.9102 27.2181 23.032 26.4816 23.0491ZM28.3796 20.1569C28.98 20.1462 29.569 19.9912 30.0968 19.705L27.3854 15.909C26.9694 16.1433 26.6255 16.4871 26.3912 16.9032C26.1369 17.2747 26.01 17.7187 26.0297 18.1685C26.0336 18.5463 26.1265 18.9179 26.3008 19.2531C26.5049 19.5604 26.7852 19.8095 27.1143 19.9761C27.5285 20.0805 27.9526 20.1411 28.3796 20.1569ZM31.0006 13.1975C31.2718 13.0168 31.3622 12.7456 31.2718 12.2937C31.1636 11.7451 30.9487 11.223 30.6391 10.7573C30.3485 10.3056 29.9815 9.90805 29.5545 9.5823C29.4209 9.46165 29.2518 9.38761 29.0725 9.37131C28.8932 9.35502 28.7135 9.39734 28.5603 9.49192C28.4201 9.59237 28.3116 9.73085 28.2475 9.891C28.1835 10.0512 28.1666 10.2263 28.1988 10.3957C28.3095 10.9157 28.5248 11.4076 28.8315 11.8418C29.1011 12.339 29.5092 12.7472 30.0064 13.0168C30.1185 13.1671 30.2835 13.2693 30.468 13.3029C30.6524 13.3364 30.8428 13.2988 31.0006 13.1975ZM48.896 23.1394C47.1195 23.1573 45.3817 22.6202 43.9251 21.603C42.4394 20.5231 41.2819 19.0527 40.581 17.3551C39.7508 15.3517 39.3506 13.1963 39.406 11.0284C39.3728 9.05507 39.71 7.09301 40.4002 5.24402C41.0355 3.65736 42.1389 2.30178 43.5636 1.35764C45.1121 0.413559 46.9026 -0.0576415 48.7153 0.00192677C49.9705 -0.00211993 51.2194 0.180643 52.4209 0.544212C53.4946 0.841143 54.5053 1.33117 55.4035 1.99031V12.5649C53.7839 10.1111 51.9052 7.8385 49.7998 5.78631C48.2634 4.34021 46.9077 3.61716 45.8231 3.61716C45.5042 3.59687 45.1857 3.66146 44.8999 3.80435C44.6141 3.94724 44.3713 4.16332 44.1962 4.43059C43.7842 5.14189 43.5952 5.96056 43.6539 6.7805C43.7005 8.45347 44.1336 10.093 44.9193 11.5707C45.7551 13.1335 46.8916 14.5157 48.2634 15.6378C49.3321 16.6126 50.7053 17.1874 52.1497 17.2647C52.5696 17.2891 52.9897 17.2208 53.3802 17.0646C53.7707 16.9084 54.1221 16.6681 54.4093 16.3609C55.0817 15.6066 55.4937 14.6559 55.5842 13.6494C56.1088 15.2604 56.1403 16.9914 55.6746 18.6204C55.3196 20.0305 54.4898 21.2753 53.3247 22.1452C51.9335 22.7804 50.4253 23.119 48.896 23.1394Z" fill="white"/>
</g>
<defs>
<clipPath id="clip0_373_461">
<rect width="56" height="23.2279" fill="white"/>
</clipPath>
</defs>
</svg>
