<svg width="93" height="14" viewBox="0 0 93 14" fill="none" xmlns="http://www.w3.org/2000/svg">
<path d="M0.14978 13C0.852003 11.32 1.46978 9.7289 2.00311 8.22668C2.54534 6.71557 3.00756 5.26223 3.38978 3.86668C3.63867 2.99557 3.66534 2.2889 3.46978 1.74668C3.27422 1.19557 2.87867 0.768899 2.28311 0.466677H7.25645L10.1898 10.1067C10.4476 10.96 10.6787 11.6045 10.8831 12.04C11.0964 12.4667 11.332 12.7867 11.5898 13H7.56311L6.17645 8.32001H3.70978C3.80756 10.5689 4.49645 12.1289 5.77645 13H0.14978ZM5.96311 7.60001L4.42978 2.41334C3.95867 4.3689 3.71422 6.09779 3.69645 7.60001H5.96311Z" fill="#3066BE"/>
<path d="M11.5939 13C11.9228 12.7511 12.1539 12.4045 12.2873 11.96C12.4206 11.5067 12.4784 10.8978 12.4606 10.1333L12.3406 5.20001C12.3228 4.45334 12.2295 3.85334 12.0606 3.40001C11.9006 2.94668 11.6517 2.59112 11.3139 2.33334H15.4473L15.4873 3.84001C15.6739 3.32445 15.9717 2.92445 16.3806 2.64001C16.7984 2.34668 17.3051 2.20001 17.9006 2.20001C18.4962 2.20001 18.9584 2.35112 19.2873 2.65334C19.6162 2.94668 19.8384 3.27112 19.9539 3.62668C20.0695 3.98223 20.1539 4.36001 20.2073 4.76001V4.77334L20.8473 9.86668C20.9451 10.6489 21.0917 11.2889 21.2873 11.7867C21.4828 12.2845 21.7184 12.6845 21.9939 12.9867L22.0073 13H17.6873L17.4339 5.06668C17.4251 4.61334 17.3717 4.24445 17.2739 3.96001C17.1762 3.66668 16.9673 3.52001 16.6473 3.52001C16.3095 3.52001 16.0606 3.69334 15.9006 4.04001C15.7406 4.38668 15.6428 4.78223 15.6073 5.22668C15.5806 5.67112 15.5717 6.13779 15.5806 6.62668V6.73334L15.6739 10.1333C15.6828 10.88 15.7673 11.48 15.9273 11.9333C16.0962 12.3867 16.3495 12.7422 16.6873 13H11.5939Z" fill="#3066BE"/>
<path d="M22.2971 13C22.626 12.7511 22.8571 12.4045 22.9904 11.96C23.1237 11.5067 23.1815 10.8978 23.1637 10.1333L23.0437 5.20001C23.026 4.45334 22.9326 3.85334 22.7637 3.40001C22.6037 2.94668 22.3549 2.59112 22.0171 2.33334H26.1504L26.1904 3.84001C26.3771 3.32445 26.6748 2.92445 27.0837 2.64001C27.5015 2.34668 28.0082 2.20001 28.6037 2.20001C29.1993 2.20001 29.6615 2.35112 29.9904 2.65334C30.3193 2.94668 30.5415 3.27112 30.6571 3.62668C30.7726 3.98223 30.8571 4.36001 30.9104 4.76001V4.77334L31.5504 9.86668C31.6482 10.6489 31.7949 11.2889 31.9904 11.7867C32.186 12.2845 32.4215 12.6845 32.6971 12.9867L32.7104 13H28.3904L28.1371 5.06668C28.1282 4.61334 28.0748 4.24445 27.9771 3.96001C27.8793 3.66668 27.6704 3.52001 27.3504 3.52001C27.0126 3.52001 26.7637 3.69334 26.6037 4.04001C26.4437 4.38668 26.346 4.78223 26.3104 5.22668C26.2837 5.67112 26.2749 6.13779 26.2837 6.62668V6.73334L26.3771 10.1333C26.386 10.88 26.4704 11.48 26.6304 11.9333C26.7993 12.3867 27.0526 12.7422 27.3904 13H22.2971Z" fill="#3066BE"/>
<path d="M34.7662 13.1333C34.2151 13.1333 33.7751 12.9378 33.4462 12.5467C33.1262 12.1467 32.9662 11.6045 32.9662 10.92C32.9662 10.28 33.1085 9.71112 33.3929 9.21334C33.6774 8.70668 34.0107 8.28445 34.3929 7.94668C34.7751 7.60001 35.2551 7.22223 35.8329 6.81334L36.0596 6.65334C36.9307 6.02223 37.5529 5.48445 37.9262 5.04001C38.2996 4.58668 38.4862 4.11557 38.4862 3.62668C38.4862 3.3689 38.4329 3.17779 38.3262 3.05334C38.2285 2.92001 38.0996 2.85334 37.9396 2.85334C37.6907 2.85334 37.3974 3.0089 37.0596 3.32001C36.7218 3.62223 36.3085 4.08445 35.8196 4.70668C35.3396 5.32001 34.6818 6.2089 33.8462 7.37334L33.1662 8.33334V3.45334C33.6818 3.07112 34.3396 2.7689 35.1396 2.54668C35.9396 2.31557 36.7574 2.20001 37.5929 2.20001C38.8818 2.20001 39.8507 2.51112 40.4996 3.13334C41.104 3.73779 41.4062 4.61779 41.4062 5.77334C41.4062 6.10223 41.3885 6.4089 41.3529 6.69334L41.0329 9.45334C40.9707 9.92445 40.9662 10.3289 41.0196 10.6667C41.0818 11.0045 41.264 11.1733 41.5662 11.1733C41.8507 11.1733 42.1529 10.96 42.4729 10.5333C42.3396 11.3778 42.0596 12.0222 41.6329 12.4667C41.2151 12.9111 40.6596 13.1333 39.9662 13.1333C38.3485 13.1333 37.704 11.8933 38.0329 9.41334H38.0062C37.6418 10.6045 37.1796 11.5245 36.6196 12.1733C36.0596 12.8133 35.4418 13.1333 34.7662 13.1333ZM36.4596 10.2133C36.9129 10.2133 37.2907 9.87557 37.5929 9.20001C37.8951 8.51557 38.1085 7.54668 38.2329 6.29334L38.3396 5.22668H38.3262C38.1751 5.54668 37.9973 5.84001 37.7929 6.10668C37.5973 6.37334 37.3396 6.69334 37.0196 7.06668C36.6018 7.54668 36.2907 7.95112 36.0862 8.28001C35.8907 8.60001 35.7929 8.95557 35.7929 9.34668C35.7929 9.62223 35.8507 9.83557 35.9662 9.98668C36.0818 10.1378 36.2462 10.2133 36.4596 10.2133Z" fill="#3066BE"/>
<path d="M45.9356 13.1333C45.2956 13.1333 44.7267 13 44.2289 12.7333C43.7312 12.4667 43.3445 12.0933 43.0689 11.6133C42.7934 11.1333 42.6556 10.5911 42.6556 9.98668C42.6556 9.08001 42.9578 8.30223 43.5623 7.65334C44.1667 6.99557 44.9801 6.54668 46.0023 6.30668C45.1312 5.32001 44.6956 4.35557 44.6956 3.41334C44.6956 2.80001 44.8689 2.26223 45.2156 1.80001C45.5623 1.3289 46.0467 0.968899 46.6689 0.72001C47.2912 0.462232 48.0067 0.333344 48.8156 0.333344C49.6067 0.333344 50.2823 0.457788 50.8423 0.706676C51.4023 0.946677 51.8245 1.26668 52.1089 1.66668C52.3934 2.06668 52.5445 2.50223 52.5623 2.97334C52.5801 3.41779 52.4823 3.85334 52.2689 4.28001C52.0556 4.70668 51.7134 5.08001 51.2423 5.40001C50.7712 5.71112 50.1889 5.92001 49.4956 6.02668L51.1223 8.41334L51.6423 5.40001H55.0956L51.5489 9.04001C51.6912 9.25334 51.8467 9.42668 52.0156 9.56001C52.1934 9.69334 52.4201 9.76001 52.6956 9.76001C53.0689 9.76001 53.3712 9.60001 53.6023 9.28001C53.8334 8.95112 54.0201 8.42668 54.1623 7.70668C54.4378 8.74668 54.5401 9.68001 54.4689 10.5067C54.4067 11.3245 54.1801 11.9689 53.7889 12.44C53.4067 12.9022 52.8867 13.1333 52.2289 13.1333C51.8378 13.1333 51.4867 13.0489 51.1756 12.88C50.8645 12.7022 50.5978 12.4845 50.3756 12.2267C50.1534 11.9689 49.9045 11.6356 49.6289 11.2267C49.0334 11.8667 48.4334 12.3467 47.8289 12.6667C47.2245 12.9778 46.5934 13.1333 45.9356 13.1333ZM47.6023 10.96C48.0823 10.96 48.5801 10.7956 49.0956 10.4667L46.5489 6.85334C46.2467 7.14668 46.0112 7.47557 45.8423 7.84001C45.6823 8.20445 45.6023 8.57779 45.6023 8.96001C45.6023 9.36001 45.6912 9.71112 45.8689 10.0133C46.0556 10.3156 46.3001 10.5511 46.6023 10.72C46.9045 10.88 47.2378 10.96 47.6023 10.96ZM49.9756 5.21334C50.1978 5.06223 50.2556 4.76001 50.1489 4.30668C50.0423 3.85334 49.7889 3.32445 49.3889 2.72001C48.9978 2.13334 48.6156 1.69779 48.2423 1.41334C47.8778 1.1289 47.5845 1.06223 47.3623 1.21334C47.1401 1.36445 47.0823 1.66668 47.1889 2.12001C47.2956 2.57334 47.5489 3.10223 47.9489 3.70668C48.3401 4.29334 48.7178 4.7289 49.0823 5.01334C49.4556 5.29779 49.7534 5.36445 49.9756 5.21334Z" fill="#3066BE"/>
<path d="M60.7033 13.1333C59.6989 13.1333 58.81 12.8578 58.0367 12.3067C57.2633 11.7467 56.6633 10.96 56.2367 9.94668C55.8189 8.93334 55.61 7.76001 55.61 6.42668C55.61 5.20001 55.7922 4.13334 56.1567 3.22668C56.53 2.31112 57.09 1.60001 57.8367 1.09334C58.5922 0.586677 59.5211 0.333344 60.6233 0.333344C61.3167 0.333344 61.9789 0.431121 62.61 0.626677C63.2411 0.822233 63.7655 1.0889 64.1833 1.42668V7.25334C62.8944 5.36001 61.7833 3.96445 60.85 3.06668C59.9255 2.16001 59.1344 1.70668 58.4767 1.70668C58.1478 1.70668 57.8855 1.85334 57.69 2.14668C57.5033 2.43112 57.41 2.82668 57.41 3.33334C57.41 4.31112 57.6678 5.30223 58.1833 6.30668C58.6989 7.30223 59.3478 8.12446 60.13 8.77334C60.9122 9.42223 61.6767 9.74668 62.4233 9.74668C62.93 9.74668 63.3433 9.57779 63.6633 9.24001C63.9833 8.90223 64.1878 8.40445 64.2767 7.74668C64.5433 8.76001 64.5655 9.67557 64.3433 10.4933C64.1211 11.3111 63.69 11.9556 63.05 12.4267C62.4189 12.8978 61.6367 13.1333 60.7033 13.1333Z" fill="#3066BE"/>
<path d="M71.7664 11.32C72.122 11.1245 72.202 10.64 72.0064 9.86668C71.8109 9.09334 71.3487 8.09334 70.6198 6.86668C69.9176 5.61334 69.282 4.70668 68.7131 4.14668C68.1531 3.58668 67.6953 3.41334 67.3398 3.62668C66.9753 3.82223 66.8953 4.30668 67.0998 5.08001C67.3042 5.84445 67.7709 6.84445 68.4998 8.08001C69.202 9.32445 69.8331 10.2267 70.3931 10.7867C70.962 11.3467 71.4198 11.5245 71.7664 11.32ZM69.4865 13.1333C68.6776 13.1333 67.962 12.8933 67.3398 12.4133C66.7176 11.9333 66.2287 11.2622 65.8731 10.4C65.5264 9.53779 65.3531 8.55112 65.3531 7.44001C65.3531 6.39112 65.5131 5.47557 65.8331 4.69334C66.1531 3.90223 66.6242 3.2889 67.2464 2.85334C67.8687 2.41779 68.6153 2.20001 69.4865 2.20001C70.3576 2.20001 71.1042 2.41779 71.7264 2.85334C72.3487 3.2889 72.8198 3.90223 73.1398 4.69334C73.4598 5.47557 73.6198 6.39112 73.6198 7.44001C73.6198 8.55112 73.442 9.53779 73.0864 10.4C72.7398 11.2622 72.2553 11.9333 71.6331 12.4133C71.0109 12.8933 70.2953 13.1333 69.4865 13.1333Z" fill="#3066BE"/>
<path d="M74.5852 5.70668C74.3274 4.74668 74.083 4.00001 73.8519 3.46668C73.6296 2.92445 73.3985 2.54668 73.1585 2.33334H77.1185L79.4919 11.9333C80.1496 9.80001 80.3852 7.89334 80.1985 6.21334C80.0119 4.52445 79.3808 3.23112 78.3052 2.33334H83.1185C82.0874 5.09779 81.3408 7.34668 80.8785 9.08001C80.4252 10.8045 80.203 12.1111 80.2119 13H76.5452L74.5852 5.70668Z" fill="#3066BE"/>
<path d="M85.0319 13.1333C84.4807 13.1333 84.0407 12.9378 83.7119 12.5467C83.3919 12.1467 83.2319 11.6045 83.2319 10.92C83.2319 10.28 83.3741 9.71112 83.6585 9.21334C83.943 8.70668 84.2763 8.28445 84.6585 7.94668C85.0408 7.60001 85.5208 7.22223 86.0985 6.81334L86.3252 6.65334C87.1963 6.02223 87.8185 5.48445 88.1919 5.04001C88.5652 4.58668 88.7519 4.11557 88.7519 3.62668C88.7519 3.3689 88.6985 3.17779 88.5919 3.05334C88.4941 2.92001 88.3652 2.85334 88.2052 2.85334C87.9563 2.85334 87.663 3.0089 87.3252 3.32001C86.9874 3.62223 86.5741 4.08445 86.0852 4.70668C85.6052 5.32001 84.9474 6.2089 84.1119 7.37334L83.4319 8.33334V3.45334C83.9474 3.07112 84.6052 2.7689 85.4052 2.54668C86.2052 2.31557 87.023 2.20001 87.8585 2.20001C89.1474 2.20001 90.1163 2.51112 90.7652 3.13334C91.3696 3.73779 91.6719 4.61779 91.6719 5.77334C91.6719 6.10223 91.6541 6.4089 91.6185 6.69334L91.2985 9.45334C91.2363 9.92445 91.2319 10.3289 91.2852 10.6667C91.3474 11.0045 91.5296 11.1733 91.8319 11.1733C92.1163 11.1733 92.4185 10.96 92.7385 10.5333C92.6052 11.3778 92.3252 12.0222 91.8985 12.4667C91.4808 12.9111 90.9252 13.1333 90.2319 13.1333C88.6141 13.1333 87.9696 11.8933 88.2985 9.41334H88.2719C87.9074 10.6045 87.4452 11.5245 86.8852 12.1733C86.3252 12.8133 85.7074 13.1333 85.0319 13.1333ZM86.7252 10.2133C87.1785 10.2133 87.5563 9.87557 87.8585 9.20001C88.1608 8.51557 88.3741 7.54668 88.4985 6.29334L88.6052 5.22668H88.5919C88.4408 5.54668 88.263 5.84001 88.0585 6.10668C87.863 6.37334 87.6052 6.69334 87.2852 7.06668C86.8674 7.54668 86.5563 7.95112 86.3519 8.28001C86.1563 8.60001 86.0585 8.95557 86.0585 9.34668C86.0585 9.62223 86.1163 9.83557 86.2319 9.98668C86.3474 10.1378 86.5119 10.2133 86.7252 10.2133Z" fill="#3066BE"/>
</svg>
