<svg width="51" height="24" viewBox="0 0 51 24" fill="none" xmlns="http://www.w3.org/2000/svg">
<path d="M0.963869 23.5141C1.95806 20.8931 2.95225 18.3624 3.76567 15.8318C4.5791 13.3011 5.39253 10.6801 6.29634 7.78786C6.84134 6.41097 7.02792 4.91826 6.83862 3.44958C6.78641 2.9505 6.63088 2.46775 6.38191 2.03206C6.13295 1.59636 5.796 1.21728 5.39253 0.918915H14.3402L19.4016 17.4586C19.8081 18.84 20.2909 20.1978 20.8477 21.5258C21.1424 22.2831 21.6061 22.9631 22.2034 23.5141H14.8825L12.8941 16.5548H8.01357C8.19434 19.8085 9.27891 22.1584 11.1769 23.5141H0.963869ZM12.0807 14.0241L9.55005 5.34758C8.77045 8.21667 8.25613 11.1513 8.01357 14.1145H12.0807V14.0241ZM24.4816 23.7311C23.7644 23.7305 23.0556 23.5764 22.4029 23.2792C21.8065 22.9995 21.3268 22.5199 21.0471 21.9235C20.7081 21.3511 20.5505 20.6893 20.5952 20.0255C20.5831 18.9868 20.9716 17.9835 21.6798 17.2237C22.4502 16.3925 23.4616 15.8236 24.572 15.5968C23.6247 14.701 23.0721 13.4656 23.0355 12.1623C23.009 11.4739 23.2339 10.7992 23.6682 10.2643C24.1178 9.6973 24.7106 9.2605 25.3854 8.99901C26.2255 8.69458 27.1129 8.54157 28.0065 8.5471C28.8405 8.54893 29.6674 8.70204 30.4468 8.99901C31.0632 9.23123 31.5976 9.63989 31.9832 10.174C32.3334 10.6096 32.5247 11.1515 32.5255 11.7104C32.5356 12.2448 32.4113 12.7731 32.164 13.2469C31.8944 13.82 31.4519 14.2942 30.8987 14.6026C30.2723 15.0038 29.5601 15.2516 28.8199 15.3257L30.5371 17.8563L31.3506 14.7834H35.5081L31.2602 18.9409C31.418 19.1704 31.5998 19.3825 31.8025 19.5736C31.9131 19.6708 32.042 19.7449 32.1818 19.7915C32.3215 19.838 32.4691 19.8561 32.6159 19.8447C32.8272 19.8499 33.0366 19.8032 33.2257 19.7087C33.4148 19.6141 33.5778 19.4746 33.7005 19.3024C34.0353 18.7181 34.2504 18.0728 34.3331 17.4044C34.6618 18.4867 34.7845 19.621 34.6947 20.7485C34.6486 21.5925 34.3668 22.4066 33.8812 23.0984C33.6486 23.3707 33.3563 23.5856 33.0272 23.7267C32.698 23.8678 32.3408 23.9311 31.9832 23.9119C31.5464 23.9185 31.1137 23.8258 30.7179 23.6407C30.3285 23.4494 29.9883 23.1711 29.7237 22.8273C29.4526 22.4658 29.1814 22.1042 28.8199 21.6523C28.1893 22.3327 27.4577 22.9119 26.6508 23.3696C25.9485 23.5923 25.2182 23.714 24.4816 23.7311ZM26.3796 20.8389C26.98 20.8282 27.569 20.6732 28.0969 20.387L25.3854 16.591C24.9694 16.8253 24.6255 17.1692 24.3912 17.5852C24.1369 17.9567 24.01 18.4007 24.0297 18.8505C24.0336 19.2283 24.1265 19.5999 24.3009 19.9351C24.5049 20.2424 24.7852 20.4915 25.1143 20.6581C25.5286 20.7625 25.9527 20.8231 26.3796 20.8389ZM29.0007 13.8796C29.2718 13.6988 29.3622 13.4277 29.2718 12.9758C29.1637 12.4271 28.9487 11.905 28.6391 11.4393C28.3485 10.9877 27.9815 10.5901 27.5546 10.2643C27.421 10.1437 27.2518 10.0697 27.0725 10.0534C26.8933 10.0371 26.7135 10.0794 26.5604 10.174C26.4202 10.2744 26.3116 10.4129 26.2475 10.573C26.1835 10.7332 26.1666 10.9083 26.1989 11.0778C26.3096 11.5977 26.5248 12.0897 26.8315 12.5239C27.1011 13.0211 27.5093 13.4292 28.0065 13.6988C28.1186 13.8491 28.2835 13.9514 28.468 13.9849C28.6525 14.0184 28.8428 13.9808 29.0007 13.8796ZM42.8961 23.8215C41.1195 23.8394 39.3817 23.3022 37.9251 22.285C36.4394 21.2051 35.2819 19.7348 34.581 18.0371C33.7509 16.0337 33.3506 13.8783 33.4061 11.7104C33.3728 9.7371 33.7101 7.77505 34.4003 5.92606C35.0355 4.3394 36.1389 2.98381 37.5636 2.03968C39.1121 1.0956 40.9027 0.624396 42.7153 0.683964C43.9706 0.679917 45.2195 0.862681 46.4209 1.22625C47.4947 1.52318 48.5054 2.01321 49.4035 2.67234V13.2469C47.7839 10.7931 45.9053 8.52054 43.7999 6.46834C42.2634 5.02225 40.9077 4.2992 39.8231 4.2992C39.5043 4.27891 39.1857 4.3435 38.8999 4.48639C38.6142 4.62928 38.3714 4.84536 38.1963 5.11263C37.7842 5.82393 37.5953 6.6426 37.654 7.46253C37.7005 9.1355 38.1336 10.775 38.9193 12.2527C39.7551 13.8155 40.8916 15.1977 42.2634 16.3199C43.3321 17.2947 44.7053 17.8695 46.1498 17.9467C46.5697 17.9711 46.9898 17.9028 47.3803 17.7466C47.7708 17.5904 48.1221 17.3502 48.4093 17.0429C49.0817 16.2886 49.4937 15.338 49.5843 14.3315C50.1088 15.9425 50.1403 17.6734 49.6746 19.3024C49.3197 20.7125 48.4898 21.9573 47.3247 22.8273C45.9335 23.4625 44.4253 23.8011 42.8961 23.8215Z" fill="#3066BE"/>
</svg>
